<svg width="80" height="27" viewBox="0 0 80 27" fill="none" xmlns="http://www.w3.org/2000/svg">
<rect width="80" height="27"/>
<path d="M3.84 11.744C3.168 11.744 2.58667 11.6107 2.096 11.344C1.616 11.0667 1.216 10.6933 0.896005 10.224C0.586671 9.74399 0.357338 9.20533 0.208005 8.60799C0.0693381 7.99999 0.0106714 7.37066 0.0320048 6.71999C0.0746714 5.55733 0.288005 4.55466 0.672005 3.71199C1.056 2.86933 1.54134 2.17599 2.128 1.63199C2.71467 1.08799 3.344 0.687994 4.01601 0.431994C4.69867 0.165328 5.35467 0.0319948 5.984 0.0319948C6.51734 0.0319948 6.99734 0.122661 7.42401 0.303994C7.86134 0.474661 8.20801 0.730661 8.46401 1.07199C8.72001 1.40266 8.84801 1.80799 8.84801 2.28799C8.84801 2.66133 8.73601 3.02399 8.512 3.37599C8.29867 3.71733 7.96801 3.99999 7.52001 4.22399C7.08267 4.43733 6.51734 4.54399 5.82401 4.54399C5.94134 4.20266 6.02667 3.90399 6.08001 3.64799C6.13334 3.39199 6.16001 3.17333 6.16001 2.99199C6.16001 2.61866 6.07467 2.36799 5.90401 2.24C5.73334 2.10133 5.52001 2.03199 5.26401 2.03199C4.95467 2.03199 4.66134 2.14399 4.38401 2.36799C4.10667 2.59199 3.85601 2.89599 3.632 3.27999C3.41867 3.65333 3.248 4.06933 3.12 4.52799C2.992 4.98666 2.91734 5.45066 2.896 5.91999C2.85334 7.10399 3.024 7.99999 3.408 8.60799C3.792 9.21599 4.28801 9.51999 4.89601 9.51999C5.36534 9.51999 5.88267 9.32799 6.44801 8.94399C7.02401 8.55999 7.58934 7.97866 8.144 7.19999L8.35201 7.29599C8.21334 8.25599 7.90934 9.06666 7.44001 9.72799C6.97067 10.3893 6.41601 10.8907 5.77601 11.232C5.14667 11.5733 4.50134 11.744 3.84 11.744ZM15.0245 11.728C14.6512 11.728 14.3258 11.6053 14.0485 11.36C13.7712 11.1147 13.6325 10.7147 13.6325 10.16C13.6325 10.1067 13.6325 10.0533 13.6325 9.99999C13.6325 9.94666 13.6378 9.89333 13.6485 9.83999C13.3285 10.48 12.9658 10.9547 12.5605 11.264C12.1658 11.5627 11.7658 11.712 11.3605 11.712C10.9872 11.712 10.6352 11.584 10.3045 11.328C9.97384 11.0613 9.70717 10.672 9.5045 10.16C9.30184 9.64799 9.2005 9.02933 9.2005 8.30399C9.2005 7.55733 9.30184 6.89066 9.5045 6.30399C9.71784 5.71733 9.99517 5.22133 10.3365 4.81599C10.6778 4.41066 11.0512 4.10666 11.4565 3.90399C11.8618 3.69066 12.2565 3.58399 12.6405 3.58399C13.0672 3.58399 13.4512 3.71733 13.7925 3.98399C14.1338 4.23999 14.3685 4.65066 14.4965 5.21599C14.5285 5.03466 14.5498 4.86933 14.5605 4.71999C14.5818 4.57066 14.5925 4.46933 14.5925 4.41599C14.6032 4.12799 14.7472 3.91466 15.0245 3.77599C15.3125 3.63733 15.6272 3.568 15.9685 3.568C16.2672 3.568 16.5498 3.62666 16.8165 3.74399C17.0832 3.86133 17.2645 4.05866 17.3605 4.33599L17.3925 4.43199C17.2645 4.71999 17.1365 5.06666 17.0085 5.47199C16.8805 5.87733 16.7632 6.30399 16.6565 6.75199C16.5498 7.18933 16.4645 7.62133 16.4005 8.04799C16.3365 8.46399 16.3045 8.83199 16.3045 9.15199C16.3045 9.50399 16.3418 9.74933 16.4165 9.88799C16.4912 10.016 16.5818 10.08 16.6885 10.08C16.8698 10.08 17.0352 9.95199 17.1845 9.69599L17.3125 9.75999C17.3125 10.1227 17.1952 10.4533 16.9605 10.752C16.7258 11.0507 16.4325 11.2907 16.0805 11.472C15.7285 11.6427 15.3765 11.728 15.0245 11.728ZM12.4165 9.69599C12.6938 9.69599 12.9978 9.45066 13.3285 8.95999C13.6698 8.45866 13.9632 7.74399 14.2085 6.81599C14.2298 6.71999 14.2512 6.62933 14.2725 6.54399C14.2938 6.44799 14.3098 6.35733 14.3205 6.27199C14.1498 5.87733 13.9685 5.59999 13.7765 5.43999C13.5952 5.26933 13.4138 5.18399 13.2325 5.18399C12.9658 5.18399 12.7152 5.32799 12.4805 5.61599C12.2565 5.89333 12.0698 6.24533 11.9205 6.67199C11.7818 7.09866 11.7125 7.52533 11.7125 7.95199C11.7125 8.53866 11.7765 8.97599 11.9045 9.26399C12.0432 9.55199 12.2138 9.69599 12.4165 9.69599ZM25.6123 11.76C25.2389 11.76 24.9136 11.6693 24.6363 11.488C24.3696 11.296 24.1349 11.0507 23.9323 10.752C23.7403 10.4533 23.5696 10.128 23.4203 9.77599C23.2816 9.41333 23.1483 9.06666 23.0203 8.73599C22.8283 8.20266 22.6523 7.73866 22.4923 7.34399C22.3323 6.93866 22.1563 6.59733 21.9643 6.31999C21.7616 7.13066 21.5963 7.90933 21.4683 8.65599C21.3509 9.40266 21.2763 10.2347 21.2443 11.152C21.0523 11.3333 20.8336 11.472 20.5883 11.568C20.3536 11.664 20.1136 11.712 19.8683 11.712C19.4949 11.712 19.1643 11.584 18.8763 11.328C18.5883 11.0613 18.4443 10.6187 18.4443 9.99999C18.4443 9.57333 18.5083 9.09333 18.6363 8.55999C18.7643 8.02666 18.9189 7.47733 19.1003 6.91199C19.2923 6.34666 19.4843 5.79733 19.6763 5.26399C19.8683 4.73066 20.0283 4.25066 20.1563 3.82399C20.2843 3.38666 20.3483 3.03999 20.3483 2.78399C20.3483 2.51733 20.2576 2.38399 20.0763 2.38399C19.8736 2.38399 19.6283 2.53866 19.3403 2.84799C19.0523 3.14666 18.7589 3.56799 18.4603 4.11199L18.3643 4.07999C18.3643 3.43999 18.5029 2.86933 18.7803 2.36799C19.0576 1.86666 19.4309 1.44533 19.9003 1.10399C20.3803 0.751994 20.9296 0.485328 21.5483 0.303994C22.1776 0.122661 22.8336 0.0319948 23.5163 0.0319948C24.4229 0.0319948 25.1589 0.175995 25.7243 0.463994C26.2896 0.741328 26.7056 1.10399 26.9723 1.55199C27.2496 1.98933 27.3883 2.45866 27.3883 2.95999C27.3883 3.47199 27.2549 3.97333 26.9883 4.46399C26.7323 4.95466 26.3643 5.36533 25.8843 5.69599C25.4149 6.01599 24.8549 6.20266 24.2043 6.25599C24.4283 6.42666 24.6203 6.64533 24.7803 6.91199C24.9403 7.16799 25.1056 7.46133 25.2763 7.79199C25.4256 8.09066 25.6016 8.37866 25.8043 8.65599C26.0069 8.92266 26.2843 9.05599 26.6363 9.05599C26.8176 9.05599 26.9669 9.01333 27.0843 8.92799C27.2016 8.83199 27.3029 8.67733 27.3883 8.46399L27.4843 8.51199C27.5376 8.67199 27.5696 8.82666 27.5803 8.97599C27.6016 9.12533 27.6123 9.26399 27.6123 9.39199C27.6123 10.064 27.4256 10.6293 27.0523 11.088C26.6789 11.536 26.1989 11.76 25.6123 11.76ZM22.7643 4.84799C23.1483 4.84799 23.4789 4.76266 23.7563 4.59199C24.0443 4.41066 24.2629 4.19199 24.4123 3.93599C24.5723 3.66933 24.6523 3.40266 24.6523 3.13599C24.6523 2.80533 24.5243 2.51733 24.2683 2.27199C24.0229 2.01599 23.6176 1.88799 23.0523 1.88799C22.9669 1.88799 22.8763 1.89333 22.7803 1.90399C22.6949 1.90399 22.6096 1.90933 22.5243 1.91999C22.5349 1.99466 22.5403 2.06933 22.5403 2.14399C22.5403 2.20799 22.5403 2.24 22.5403 2.24C22.5403 2.73066 22.5189 3.20533 22.4763 3.66399C22.4443 4.12266 22.3963 4.50666 22.3323 4.81599C22.4069 4.82666 22.4763 4.83733 22.5403 4.84799C22.6149 4.84799 22.6896 4.84799 22.7643 4.84799ZM31.8593 11.76C31.0806 11.76 30.4353 11.6053 29.9233 11.296C29.4113 10.976 29.0273 10.56 28.7713 10.048C28.5153 9.52533 28.3873 8.96533 28.3873 8.36799C28.3873 7.80266 28.4939 7.23733 28.7073 6.67199C28.9313 6.09599 29.2513 5.57333 29.6673 5.10399C30.0939 4.63466 30.6059 4.25599 31.2033 3.96799C31.8113 3.67999 32.4939 3.53599 33.2513 3.53599C34.1899 3.53599 34.8726 3.74933 35.2993 4.17599C35.7366 4.59199 35.9553 5.09866 35.9553 5.69599C35.9553 6.20799 35.8166 6.68266 35.5393 7.11999C35.2726 7.54666 34.9153 7.89333 34.4673 8.15999C34.0193 8.41599 33.5286 8.54399 32.9953 8.54399C32.7179 8.54399 32.4353 8.50133 32.1473 8.41599C31.8593 8.33066 31.5766 8.19733 31.2993 8.01599C31.3526 8.67733 31.5446 9.15733 31.8753 9.45599C32.2059 9.75466 32.6006 9.90399 33.0593 9.90399C33.3793 9.90399 33.6993 9.84533 34.0193 9.72799C34.3393 9.59999 34.6326 9.43999 34.8993 9.24799C35.1766 9.04533 35.3899 8.83199 35.5393 8.60799L35.6513 8.68799C35.6513 9.24266 35.5339 9.71733 35.2993 10.112C35.0753 10.496 34.7766 10.8107 34.4033 11.056C34.0299 11.3013 33.6193 11.4827 33.1713 11.6C32.7339 11.7067 32.2966 11.76 31.8593 11.76ZM32.2273 7.43999C32.5686 7.43999 32.8459 7.34399 33.0593 7.15199C33.2726 6.94933 33.4326 6.71466 33.5393 6.44799C33.6459 6.18133 33.6993 5.94666 33.6993 5.74399C33.6993 5.49866 33.6299 5.29599 33.4913 5.13599C33.3526 4.96533 33.1606 4.87999 32.9153 4.87999C32.7233 4.87999 32.5099 4.94933 32.2753 5.08799C32.0513 5.22666 31.8486 5.46666 31.6673 5.80799C31.4859 6.13866 31.3686 6.60266 31.3153 7.19999C31.6566 7.35999 31.9606 7.43999 32.2273 7.43999ZM48.7973 11.648C48.4559 11.648 48.1253 11.552 47.8053 11.36C47.4959 11.168 47.2453 10.864 47.0533 10.448C46.8613 10.032 46.7653 9.49866 46.7653 8.84799C46.7653 8.31466 46.8293 7.71733 46.9573 7.05599C47.0853 6.38399 47.2506 5.71199 47.4533 5.03999C47.6666 4.36799 47.8959 3.75999 48.1413 3.21599C47.4053 3.70666 46.7599 4.38399 46.2053 5.24799C45.6506 6.11199 45.1706 7.11466 44.7653 8.25599C44.8506 8.59733 44.9199 8.91733 44.9733 9.21599C45.0266 9.51466 45.0533 9.78666 45.0533 10.032C45.0533 10.5013 44.9413 10.8693 44.7173 11.136C44.4933 11.4027 44.1039 11.536 43.5493 11.536C43.0586 11.536 42.6959 11.4293 42.4613 11.216C42.2373 10.992 42.1253 10.6827 42.1253 10.288C42.1253 10.032 42.1679 9.73866 42.2533 9.40799C42.3493 9.07733 42.4826 8.71999 42.6533 8.33599C42.4613 7.77066 42.2266 7.13599 41.9493 6.43199C41.6719 5.71733 41.2826 4.93866 40.7813 4.09599C40.6319 4.72533 40.4773 5.35466 40.3173 5.98399C40.1679 6.60266 40.0399 7.17866 39.9333 7.71199C39.8373 8.23466 39.7893 8.67733 39.7893 9.03999C39.7893 9.62666 39.9493 9.91999 40.2693 9.91999L40.3013 9.95199C40.3013 10.304 40.2106 10.608 40.0293 10.864C39.8586 11.1093 39.6346 11.3013 39.3573 11.44C39.0906 11.568 38.8079 11.632 38.5093 11.632C38.2213 11.632 37.9386 11.5627 37.6613 11.424C37.3946 11.2853 37.1759 11.072 37.0053 10.784C36.8346 10.4853 36.7493 10.1067 36.7493 9.64799C36.7493 9.21066 36.8239 8.73599 36.9733 8.22399C37.1333 7.70133 37.3306 7.17333 37.5653 6.63999C37.7999 6.09599 38.0399 5.56799 38.2853 5.05599C38.5306 4.53333 38.7493 4.04799 38.9413 3.59999C39.1439 3.14133 39.2773 2.74133 39.3413 2.39999C39.1279 2.25066 38.8986 2.17599 38.6533 2.17599C38.4506 2.17599 38.2426 2.24533 38.0293 2.38399C37.8266 2.51199 37.6346 2.73066 37.4533 3.03999L37.3413 2.99199C37.3519 2.44799 37.4693 1.95199 37.6933 1.50399C37.9173 1.04533 38.2106 0.682661 38.5733 0.415995C38.9466 0.138661 39.3519 -5.72205e-06 39.7893 -5.72205e-06C40.2906 -5.72205e-06 40.8079 0.218661 41.3413 0.655994C41.8746 1.09333 42.3653 1.81333 42.8133 2.81599C43.2719 3.81866 43.6399 5.17333 43.9173 6.87999C44.3226 5.56799 44.7599 4.46933 45.2293 3.58399C45.6986 2.69866 46.1786 1.99466 46.6693 1.47199C47.1706 0.949327 47.6613 0.575994 48.1413 0.351995C48.6319 0.117328 49.0959 -5.72205e-06 49.5333 -5.72205e-06C50.0773 -5.72205e-06 50.5626 0.133328 50.9893 0.399995C51.4266 0.666661 51.7679 1.00266 52.0133 1.40799C52.2693 1.81333 52.3973 2.21866 52.3973 2.62399C52.1306 2.54933 51.8639 2.49599 51.5973 2.46399C51.3413 2.43199 51.0906 2.41599 50.8453 2.41599C50.5999 2.41599 50.3653 2.43199 50.1413 2.46399C50.0453 2.95466 49.9439 3.50399 49.8373 4.11199C49.7306 4.70933 49.6346 5.31199 49.5493 5.91999C49.4746 6.52799 49.4373 7.08799 49.4373 7.59999C49.4373 8.12266 49.4906 8.54933 49.5973 8.87999C49.7039 9.21066 49.8906 9.37599 50.1573 9.37599C50.3279 9.37599 50.4986 9.30133 50.6693 9.15199C50.8506 9.00266 50.9839 8.77333 51.0693 8.46399L51.1813 8.51199C51.1813 9.21599 51.0639 9.80266 50.8293 10.272C50.5946 10.7307 50.2906 11.0773 49.9173 11.312C49.5546 11.536 49.1813 11.648 48.7973 11.648ZM55.1773 3.08799C54.7506 3.08799 54.3986 2.95999 54.1213 2.70399C53.8546 2.43733 53.7213 2.10666 53.7213 1.71199C53.7213 1.28533 53.8813 0.917328 54.2013 0.607994C54.5213 0.298661 54.9106 0.143994 55.3693 0.143994C55.7959 0.143994 56.1426 0.277328 56.4093 0.543995C56.6866 0.810661 56.8253 1.14133 56.8253 1.53599C56.8253 1.96266 56.6653 2.33066 56.3453 2.63999C56.0253 2.93866 55.6359 3.08799 55.1773 3.08799ZM54.0573 11.712C53.6413 11.712 53.2679 11.568 52.9373 11.28C52.6066 10.9813 52.4413 10.5067 52.4413 9.85599C52.4413 9.48266 52.4893 9.13599 52.5853 8.81599C52.6919 8.48533 52.8093 8.16533 52.9373 7.85599C53.0759 7.54666 53.1933 7.24799 53.2893 6.95999C53.3959 6.66133 53.4493 6.36799 53.4493 6.07999C53.4493 5.82399 53.4066 5.64266 53.3213 5.53599C53.2359 5.41866 53.1346 5.35999 53.0173 5.35999C52.8359 5.35999 52.6599 5.47733 52.4893 5.71199L52.3773 5.64799C52.4199 5.22133 52.5533 4.85866 52.7773 4.55999C53.0119 4.25066 53.2946 4.01066 53.6253 3.83999C53.9666 3.66933 54.3026 3.58399 54.6333 3.58399C55.0386 3.58399 55.3906 3.71733 55.6893 3.98399C55.9879 4.23999 56.1373 4.66133 56.1373 5.24799C56.1373 5.59999 56.0839 5.97333 55.9773 6.36799C55.8813 6.75199 55.7639 7.13599 55.6253 7.51999C55.4973 7.90399 55.3799 8.26133 55.2733 8.59199C55.1773 8.92266 55.1293 9.20533 55.1293 9.43999C55.1293 9.64266 55.1666 9.78666 55.2413 9.87199C55.3266 9.95733 55.4173 9.99999 55.5133 9.99999C55.6093 9.99999 55.6999 9.97333 55.7853 9.91999C55.8813 9.85599 55.9506 9.78666 55.9933 9.71199L56.1053 9.74399C56.1053 10.1387 55.9986 10.4853 55.7853 10.784C55.5826 11.072 55.3266 11.3013 55.0173 11.472C54.7079 11.632 54.3879 11.712 54.0573 11.712ZM59.1975 11.696C58.8028 11.696 58.4455 11.5413 58.1255 11.232C57.8055 10.912 57.6455 10.4693 57.6455 9.90399C57.6455 9.62666 57.6828 9.31199 57.7575 8.95999C57.8322 8.60799 57.9122 8.25066 57.9975 7.88799C58.0935 7.52533 58.1788 7.18399 58.2535 6.86399C58.3282 6.54399 58.3655 6.28266 58.3655 6.07999C58.3655 5.86666 58.3228 5.70133 58.2375 5.58399C58.1522 5.45599 58.0402 5.39199 57.9015 5.39199C57.7202 5.39199 57.5228 5.49866 57.3095 5.71199L57.2135 5.64799C57.2028 5.47733 57.2402 5.27466 57.3255 5.03999C57.4108 4.80533 57.5388 4.58133 57.7095 4.36799C57.8908 4.14399 58.1202 3.95733 58.3975 3.80799C58.6748 3.65866 59.0055 3.58399 59.3895 3.58399C59.9548 3.58399 60.3708 3.74933 60.6375 4.07999C60.9148 4.39999 61.0535 4.79466 61.0535 5.26399C61.0535 5.43466 61.0375 5.59999 61.0055 5.75999C61.2295 5.42933 61.5068 5.09866 61.8375 4.76799C62.1682 4.42666 62.5308 4.14399 62.9255 3.91999C63.3308 3.69599 63.7468 3.58399 64.1735 3.58399C64.6748 3.58399 65.0162 3.74399 65.1975 4.06399C65.3788 4.38399 65.4695 4.78399 65.4695 5.26399C65.4695 5.71199 65.4215 6.19199 65.3255 6.70399C65.2295 7.21599 65.1335 7.71199 65.0375 8.19199C64.9415 8.66133 64.8935 9.05599 64.8935 9.37599C64.8935 9.80266 65.0162 10.016 65.2615 10.016C65.3895 10.016 65.5015 9.97866 65.5975 9.90399C65.6935 9.81866 65.7575 9.73866 65.7895 9.66399L65.9015 9.71199C65.9015 10.1067 65.7895 10.4533 65.5655 10.752C65.3522 11.0507 65.0802 11.2853 64.7495 11.456C64.4188 11.616 64.0828 11.696 63.7415 11.696C63.3255 11.696 62.9575 11.552 62.6375 11.264C62.3175 10.976 62.1575 10.5067 62.1575 9.85599C62.1575 9.47199 62.2055 9.05599 62.3015 8.60799C62.4082 8.15999 62.5095 7.72799 62.6055 7.31199C62.7015 6.89599 62.7495 6.55466 62.7495 6.28799C62.7495 6.12799 62.7175 6.00533 62.6535 5.91999C62.6002 5.82399 62.4988 5.77599 62.3495 5.77599C62.1042 5.77599 61.8322 5.88799 61.5335 6.11199C61.2455 6.33599 60.9948 6.63466 60.7815 7.00799C60.5788 7.38133 60.4775 7.79199 60.4775 8.23999C60.4775 8.52799 60.5095 8.80533 60.5735 9.07199C60.6482 9.33866 60.6855 9.62666 60.6855 9.93599C60.6855 10.512 60.5362 10.9493 60.2375 11.248C59.9388 11.5467 59.5922 11.696 59.1975 11.696ZM69.0354 11.712C68.6514 11.712 68.2887 11.5787 67.9474 11.312C67.6167 11.0453 67.3447 10.656 67.1314 10.144C66.9287 9.63199 66.8274 9.01333 66.8274 8.28799C66.8274 7.54133 66.934 6.87466 67.1474 6.28799C67.3607 5.70133 67.638 5.20533 67.9794 4.79999C68.3314 4.38399 68.71 4.06933 69.1154 3.85599C69.5314 3.64266 69.9367 3.53599 70.3314 3.53599C70.7687 3.53599 71.158 3.67466 71.4994 3.95199C71.8407 4.21866 72.0754 4.63999 72.2034 5.21599C72.2994 4.68266 72.3794 4.17599 72.4434 3.69599C72.518 3.20533 72.5554 2.77333 72.5554 2.39999C72.5554 1.90933 72.4914 1.55199 72.3634 1.32799V1.23199C72.6087 0.954661 72.8754 0.751994 73.1634 0.623995C73.462 0.485328 73.7447 0.415995 74.0114 0.415995C74.3634 0.415995 74.662 0.527994 74.9074 0.751994C75.1527 0.965328 75.2754 1.27466 75.2754 1.67999C75.2754 1.90399 75.238 2.23466 75.1634 2.67199C75.0887 3.10933 74.998 3.61066 74.8914 4.17599C74.7847 4.73066 74.6727 5.30666 74.5554 5.90399C74.4487 6.49066 74.358 7.05599 74.2834 7.59999C74.2087 8.13333 74.1714 8.59733 74.1714 8.99199C74.1714 9.32266 74.2034 9.58933 74.2674 9.79199C74.342 9.98399 74.4594 10.08 74.6194 10.08C74.7367 10.08 74.854 10.0427 74.9714 9.96799C75.0994 9.88266 75.1847 9.78666 75.2274 9.67999L75.3394 9.75999C75.3394 10.112 75.2274 10.4373 75.0034 10.736C74.7794 11.024 74.4967 11.2587 74.1554 11.44C73.814 11.6213 73.462 11.712 73.0994 11.712C72.7047 11.712 72.39 11.6053 72.1554 11.392C71.9314 11.168 71.7714 10.8853 71.6754 10.544C71.5794 10.2027 71.526 9.85066 71.5154 9.48799C71.1847 10.256 70.7954 10.8213 70.3474 11.184C69.91 11.536 69.4727 11.712 69.0354 11.712ZM70.1074 9.67999C70.3847 9.67999 70.694 9.42933 71.0354 8.92799C71.3767 8.42666 71.6754 7.69599 71.9314 6.73599L72.0274 6.23999C71.8567 5.84533 71.67 5.56799 71.4674 5.40799C71.2754 5.23733 71.0887 5.15199 70.9074 5.15199C70.6407 5.15199 70.39 5.30133 70.1554 5.59999C69.9207 5.88799 69.7287 6.26133 69.5794 6.71999C69.4407 7.16799 69.3714 7.64266 69.3714 8.14399C69.3714 8.62399 69.4407 9.00266 69.5794 9.27999C69.718 9.54666 69.894 9.67999 70.1074 9.67999ZM77.4771 11.744C77.0398 11.744 76.6771 11.6053 76.3891 11.328C76.1011 11.0507 75.9571 10.7093 75.9571 10.304C75.9571 9.84533 76.1225 9.45599 76.4531 9.13599C76.7945 8.80533 77.2105 8.63999 77.7011 8.63999C78.1385 8.63999 78.5011 8.77866 78.7891 9.05599C79.0878 9.33333 79.2371 9.67466 79.2371 10.08C79.2371 10.5387 79.0665 10.9333 78.7251 11.264C78.3838 11.584 77.9678 11.744 77.4771 11.744Z" fill="url(#paint0_linear_2273_2)"/>
<path d="M40.048 13.228C39.7013 13.728 39.3147 14.3613 38.888 15.128C38.4613 15.8947 38.1213 16.538 37.868 17.058L37.488 17.838C36.8013 19.2647 36.458 20.288 36.458 20.908C36.458 20.9213 36.458 20.948 36.458 20.988C36.4647 21.028 36.468 21.0613 36.468 21.088C36.468 21.1947 36.438 21.248 36.378 21.248C36.2647 21.248 36.1413 21.148 36.008 20.948C35.8747 20.7547 35.808 20.4947 35.808 20.168C35.808 19.868 35.878 19.5013 36.018 19.068C36.1647 18.6347 36.378 18.1413 36.658 17.588C36.938 17.028 37.1713 16.578 37.358 16.238C37.5513 15.898 37.8047 15.4547 38.118 14.908C38.138 14.868 38.148 14.838 38.148 14.818C38.1347 14.7847 38.118 14.768 38.098 14.768C38.058 14.768 38.018 14.7847 37.978 14.818C37.5847 15.138 37.068 15.6813 36.428 16.448C35.788 17.2147 35.248 17.9013 34.808 18.508L34.138 19.418C34.0313 19.578 33.9447 19.658 33.878 19.658C33.858 19.658 33.8413 19.6513 33.828 19.638C33.8147 19.6247 33.8047 19.608 33.798 19.588C33.7913 19.5613 33.7847 19.538 33.778 19.518C33.778 19.498 33.778 19.4813 33.778 19.468V19.448C33.8247 19.0347 33.8913 18.458 33.978 17.718C34.0713 16.978 34.148 16.3547 34.208 15.848C34.268 15.3413 34.298 15.0813 34.298 15.068C34.298 15.0013 34.2847 14.968 34.258 14.968C34.2447 14.968 34.2247 14.978 34.198 14.998C34.178 15.018 34.1613 15.038 34.148 15.058L34.128 15.088C33.8413 15.5147 33.5347 16.068 33.208 16.748C32.8813 17.4213 32.618 18.018 32.418 18.538C32.2713 18.9113 32.1213 19.2547 31.968 19.568C31.8147 19.8747 31.678 20.1147 31.558 20.288C31.4447 20.4547 31.3413 20.5947 31.248 20.708C31.148 20.828 31.0713 20.908 31.018 20.948L30.938 21.008C30.8647 21.068 30.808 21.098 30.768 21.098C30.728 21.098 30.708 21.0647 30.708 20.998L30.718 20.908C30.7847 20.5547 31.0747 19.8813 31.588 18.888C32.108 17.8947 32.6113 16.988 33.098 16.168L33.828 14.948L34.378 13.998C34.6513 13.218 34.8613 12.828 35.008 12.828C35.108 12.828 35.158 12.998 35.158 13.338C34.9513 15.818 34.848 17.2347 34.848 17.588C34.848 17.688 34.868 17.738 34.908 17.738C34.948 17.738 34.9947 17.7013 35.048 17.628C35.1347 17.5147 35.2547 17.3613 35.408 17.168C35.5613 16.9747 35.8547 16.628 36.288 16.128C36.7213 15.628 37.128 15.178 37.508 14.778C37.8947 14.378 38.3147 13.9947 38.768 13.628C39.2213 13.2613 39.5947 13.038 39.888 12.958C39.9547 12.9447 39.998 12.938 40.018 12.938C40.098 12.938 40.138 12.968 40.138 13.028C40.138 13.0813 40.108 13.148 40.048 13.228ZM38.7743 19.678C37.9943 20.4113 37.4943 20.778 37.2743 20.778C37.161 20.778 37.1043 20.7013 37.1043 20.548C37.1043 20.3947 37.1643 20.1713 37.2843 19.878C37.4043 19.5847 37.5243 19.328 37.6443 19.108L37.8243 18.788C38.331 17.9013 38.7143 17.2647 38.9743 16.878C39.0877 16.7113 39.231 16.5713 39.4043 16.458C39.5843 16.338 39.751 16.278 39.9043 16.278C39.9577 16.278 39.9843 16.3013 39.9843 16.348C39.9843 16.3813 39.961 16.4447 39.9143 16.538C39.8343 16.6847 39.6377 17.0347 39.3243 17.588C39.011 18.1413 38.8243 18.4747 38.7643 18.588C38.491 19.068 38.3543 19.388 38.3543 19.548C38.3543 19.608 38.3743 19.638 38.4143 19.638C38.481 19.638 38.6943 19.4713 39.0543 19.138C39.3343 18.858 39.7043 18.4547 40.1643 17.928C40.1843 17.908 40.201 17.898 40.2143 17.898C40.2277 17.898 40.2343 17.9113 40.2343 17.938C40.2343 18.0647 40.1843 18.188 40.0843 18.308C39.591 18.8547 39.1543 19.3113 38.7743 19.678ZM40.1043 15.708C39.9377 15.708 39.8543 15.608 39.8543 15.408C39.8543 15.2213 39.9243 15.0347 40.0643 14.848C40.2043 14.6547 40.3577 14.558 40.5243 14.558C40.7243 14.558 40.8243 14.6713 40.8243 14.898C40.8243 15.0847 40.7477 15.268 40.5943 15.448C40.441 15.6213 40.2777 15.708 40.1043 15.708ZM42.5607 19.678C41.7807 20.4113 41.2674 20.778 41.0207 20.778C40.9074 20.778 40.8507 20.718 40.8507 20.598C40.8507 20.5247 40.8674 20.4347 40.9007 20.328C40.9341 20.2147 40.9741 20.1047 41.0207 19.998C41.0741 19.8847 41.1241 19.7813 41.1707 19.688C41.2174 19.5947 41.2641 19.508 41.3107 19.428C41.3574 19.348 41.3807 19.3047 41.3807 19.298C41.4807 19.118 41.6307 18.868 41.8307 18.548C42.0307 18.2213 42.1907 17.9547 42.3107 17.748C42.4307 17.5347 42.4907 17.4047 42.4907 17.358C42.4907 17.3247 42.4741 17.308 42.4407 17.308L42.3007 17.358C41.9941 17.578 41.6274 17.9213 41.2007 18.388C40.7741 18.848 40.4241 19.2547 40.1507 19.608L39.7407 20.128C39.6541 20.2547 39.5774 20.358 39.5107 20.438C39.4441 20.518 39.3474 20.5947 39.2207 20.668C39.1007 20.748 38.9774 20.788 38.8507 20.788C38.7574 20.788 38.7107 20.7613 38.7107 20.708C38.7107 20.6547 38.7741 20.5013 38.9007 20.248C39.0274 19.988 39.1541 19.7413 39.2807 19.508L39.4707 19.168L40.4507 17.448C40.5507 17.2813 40.6307 17.1547 40.6907 17.068C40.7574 16.9747 40.8474 16.8613 40.9607 16.728C41.0741 16.588 41.1941 16.4847 41.3207 16.418C41.4541 16.3513 41.5941 16.3113 41.7407 16.298C41.7941 16.298 41.8207 16.3213 41.8207 16.368C41.8207 16.408 41.8107 16.4413 41.7907 16.468C41.6374 16.708 41.4007 17.1047 41.0807 17.658C40.7674 18.2113 40.5674 18.5713 40.4807 18.738C40.4607 18.778 40.4507 18.808 40.4507 18.828C40.4507 18.8413 40.4574 18.848 40.4707 18.848C40.4841 18.848 40.5174 18.828 40.5707 18.788C40.6974 18.6413 40.8607 18.458 41.0607 18.238C41.2674 18.018 41.6141 17.688 42.1007 17.248C42.5874 16.8013 42.9874 16.5013 43.3007 16.348C43.3741 16.3147 43.4441 16.298 43.5107 16.298C43.6041 16.298 43.6507 16.3513 43.6507 16.458C43.5974 16.7713 43.3407 17.308 42.8807 18.068C42.3741 18.9013 42.1207 19.3947 42.1207 19.548C42.1207 19.6013 42.1441 19.628 42.1907 19.628C42.2241 19.628 42.2607 19.618 42.3007 19.598C42.3474 19.5713 42.3974 19.538 42.4507 19.498C42.5041 19.4513 42.5474 19.4113 42.5807 19.378C42.6207 19.3447 42.6707 19.3013 42.7307 19.248C42.7907 19.188 42.8274 19.1513 42.8407 19.138C43.1207 18.858 43.4907 18.4547 43.9507 17.928C43.9707 17.908 43.9874 17.898 44.0007 17.898C44.0141 17.898 44.0207 17.9113 44.0207 17.938C44.0207 18.0647 43.9707 18.188 43.8707 18.308C43.3774 18.8547 42.9407 19.3113 42.5607 19.678ZM44.3398 19.578C44.3798 19.5447 44.4331 19.498 44.4998 19.438C44.5731 19.3713 44.7098 19.238 44.9098 19.038C45.1098 18.8313 45.2998 18.6213 45.4798 18.408C45.6665 18.188 45.8698 17.918 46.0898 17.598C46.3165 17.278 46.5098 16.9613 46.6698 16.648C46.6765 16.6347 46.6798 16.6213 46.6798 16.608L46.6698 16.578C46.6231 16.5513 46.5698 16.538 46.5098 16.538C46.2231 16.538 45.8665 16.7513 45.4398 17.178C45.0198 17.6047 44.6598 18.0647 44.3598 18.558C44.0665 19.0447 43.9198 19.3947 43.9198 19.608C43.9198 19.7013 43.9565 19.748 44.0298 19.748C44.1098 19.748 44.2131 19.6913 44.3398 19.578ZM46.5498 19.138C46.8298 18.858 47.1998 18.4547 47.6598 17.928C47.6798 17.908 47.6965 17.898 47.7098 17.898C47.7231 17.898 47.7298 17.9113 47.7298 17.938C47.7298 18.0647 47.6798 18.188 47.5798 18.308C47.0865 18.8547 46.6498 19.3113 46.2698 19.678C45.4831 20.4113 44.9665 20.778 44.7198 20.778C44.6265 20.778 44.5798 20.728 44.5798 20.628C44.5798 20.5013 44.6431 20.3013 44.7698 20.028C44.8965 19.7547 45.0265 19.5113 45.1598 19.298L45.3498 18.978C45.3765 18.9447 45.3898 18.9147 45.3898 18.888C45.3898 18.8747 45.3831 18.868 45.3698 18.868C45.3431 18.868 45.3065 18.8913 45.2598 18.938C45.0531 19.178 44.8165 19.4247 44.5498 19.678C44.2831 19.9313 44.0665 20.128 43.8998 20.268L43.6598 20.468C43.3931 20.6747 43.1931 20.778 43.0598 20.778L43.0198 20.768C42.9065 20.7613 42.8498 20.6613 42.8498 20.468C42.8498 19.9613 43.0265 19.3847 43.3798 18.738C43.7398 18.0847 44.2031 17.518 44.7698 17.038C45.3365 16.558 45.8831 16.318 46.4098 16.318C46.4631 16.318 46.5131 16.3247 46.5598 16.338C46.6065 16.3447 46.6398 16.3513 46.6598 16.358C46.6865 16.3647 46.7098 16.3747 46.7298 16.388L46.7598 16.398C46.7731 16.398 46.7898 16.388 46.8098 16.368C48.0431 14.1413 48.9898 12.6047 49.6498 11.758C49.8498 11.4913 49.9931 11.358 50.0798 11.358C50.1131 11.358 50.1298 11.3847 50.1298 11.438C50.1298 11.578 50.0231 11.8647 49.8098 12.298C48.7831 14.178 48.0631 15.4813 47.6498 16.208C46.9098 17.528 46.4598 18.3213 46.2998 18.588C45.9731 19.148 45.8098 19.488 45.8098 19.608C45.8098 19.6547 45.8298 19.678 45.8698 19.678C45.9031 19.678 45.9398 19.668 45.9798 19.648C46.0265 19.6213 46.0765 19.5847 46.1298 19.538C46.1831 19.4913 46.2298 19.448 46.2698 19.408C46.3165 19.368 46.3698 19.318 46.4298 19.258C46.4898 19.198 46.5298 19.158 46.5498 19.138ZM50.6576 19.228L51.0776 18.408C51.0776 18.388 51.0709 18.378 51.0576 18.378C51.0443 18.378 51.0276 18.388 51.0076 18.408C50.7609 18.6947 50.5009 18.978 50.2276 19.258C49.9543 19.5313 49.7443 19.7347 49.5976 19.868L49.3776 20.068C48.8776 20.5413 48.5243 20.778 48.3176 20.778C48.2243 20.778 48.1776 20.718 48.1776 20.598C48.1776 20.4647 48.2309 20.2647 48.3376 19.998C48.4443 19.7247 48.5509 19.488 48.6576 19.288L48.8176 18.978C49.3776 17.9313 49.7909 17.2313 50.0576 16.878C50.1909 16.7047 50.3543 16.5613 50.5476 16.448C50.7409 16.328 50.8909 16.268 50.9976 16.268C51.0643 16.268 51.0976 16.2913 51.0976 16.338C51.0976 16.3647 51.0843 16.4013 51.0576 16.448C51.0443 16.4747 50.9076 16.698 50.6476 17.118C50.3876 17.5313 50.1776 17.888 50.0176 18.188C49.5776 18.9947 49.3576 19.458 49.3576 19.578C49.3576 19.6247 49.3776 19.648 49.4176 19.648C49.4776 19.648 49.5809 19.588 49.7276 19.468C50.1609 19.0947 50.6376 18.5913 51.1576 17.958C51.4443 17.6513 51.7443 17.2513 52.0576 16.758C52.1443 16.6247 52.2709 16.5113 52.4376 16.418C52.6109 16.318 52.7676 16.268 52.9076 16.268C52.9676 16.268 52.9976 16.2947 52.9976 16.348L52.9176 16.538C52.8243 16.7047 52.6143 17.0713 52.2876 17.638C51.9676 18.198 51.7876 18.5147 51.7476 18.588C51.6943 18.688 51.5709 18.9047 51.3776 19.238C51.1909 19.5647 51.0576 19.798 50.9776 19.938C51.3976 19.598 51.7443 19.3047 52.0176 19.058C52.3109 18.7513 52.6543 18.3747 53.0476 17.928C53.0676 17.908 53.0843 17.898 53.0976 17.898C53.1109 17.898 53.1176 17.9113 53.1176 17.938C53.1176 18.0647 53.0676 18.188 52.9676 18.308C52.6743 18.628 52.4209 18.9013 52.2076 19.128C51.9276 19.4213 51.4276 19.848 50.7076 20.408L50.4476 20.888C49.1609 23.2547 48.2743 24.7947 47.7876 25.508C47.7409 25.5813 47.6809 25.668 47.6076 25.768C47.5343 25.8747 47.4143 26.0147 47.2476 26.188C47.0809 26.368 46.9476 26.458 46.8476 26.458C46.6876 26.458 46.6076 26.228 46.6076 25.768C46.6076 25.088 46.8509 24.348 47.3376 23.548C47.8643 22.688 48.6776 21.8047 49.7776 20.898C49.9976 20.498 50.2909 19.9413 50.6576 19.228ZM47.5876 23.528C47.5343 23.608 47.4709 23.7113 47.3976 23.838C47.3243 23.9713 47.2243 24.1947 47.0976 24.508C46.9709 24.828 46.9076 25.0947 46.9076 25.308C46.9076 25.4213 46.9276 25.478 46.9676 25.478C47.0009 25.478 47.0509 25.4447 47.1176 25.378C47.1843 25.318 47.2409 25.2547 47.2876 25.188L47.3576 25.088C48.0176 24.0547 48.7343 22.8213 49.5076 21.388C48.6409 22.148 48.0009 22.8613 47.5876 23.528ZM56.4714 17.128C56.5314 17.1413 56.5614 17.1613 56.5614 17.188C56.5614 17.228 56.5347 17.2747 56.4814 17.328C56.408 17.4013 56.298 17.498 56.1514 17.618C56.0114 17.738 55.928 17.8113 55.9014 17.838L55.7614 18.028C55.6214 18.4213 55.4047 18.8313 55.1114 19.258C54.8247 19.678 54.4714 20.048 54.0514 20.368C53.638 20.688 53.2414 20.848 52.8614 20.848C52.388 20.848 52.1514 20.558 52.1514 19.978C52.1514 19.4647 52.318 18.9113 52.6514 18.318C52.9847 17.718 53.4147 17.208 53.9414 16.788C54.4747 16.3613 54.998 16.148 55.5114 16.148C55.8847 16.148 56.0714 16.2947 56.0714 16.588C56.0714 16.748 55.9914 16.9647 55.8314 17.238C55.8247 17.2447 55.8214 17.2547 55.8214 17.268C55.8214 17.2813 55.828 17.288 55.8414 17.288C56.088 17.188 56.298 17.1347 56.4714 17.128ZM55.5214 17.368C55.5747 17.1347 55.6014 16.9547 55.6014 16.828C55.6014 16.548 55.508 16.408 55.3214 16.408C55.0614 16.408 54.738 16.648 54.3514 17.128C53.9647 17.608 53.6314 18.148 53.3514 18.748C53.078 19.348 52.9414 19.8213 52.9414 20.168C52.9414 20.4213 53.0314 20.548 53.2114 20.548C53.4914 20.548 53.8247 20.268 54.2114 19.708C54.6047 19.148 54.8414 18.5847 54.9214 18.018C54.9147 18.0047 54.9114 17.9847 54.9114 17.958C54.9114 17.7647 55.0847 17.5913 55.4314 17.438C55.4847 17.418 55.5147 17.3947 55.5214 17.368ZM57.8379 18.978L58.1479 18.448C58.1479 18.428 58.1413 18.418 58.1279 18.418C58.1146 18.418 58.0979 18.428 58.0779 18.448C57.8313 18.7347 57.5746 19.0147 57.3079 19.288C57.0413 19.5547 56.8379 19.7513 56.6979 19.878L56.4779 20.068C55.9579 20.5613 55.5979 20.808 55.3979 20.808C55.3046 20.808 55.2579 20.748 55.2579 20.628C55.2579 20.4947 55.3146 20.2913 55.4279 20.018C55.5346 19.7447 55.6446 19.5013 55.7579 19.288L55.9179 18.978C56.4779 17.9313 56.8913 17.2313 57.1579 16.878C57.2913 16.7047 57.4546 16.5613 57.6479 16.448C57.8413 16.328 57.9913 16.268 58.0979 16.268C58.1646 16.268 58.1979 16.2913 58.1979 16.338C58.1979 16.3647 58.1846 16.4013 58.1579 16.448C58.1446 16.4747 58.0079 16.698 57.7479 17.118C57.4879 17.5313 57.2779 17.888 57.1179 18.188C56.6779 18.9947 56.4579 19.458 56.4579 19.578C56.4579 19.6247 56.4779 19.648 56.5179 19.648C56.5779 19.648 56.6813 19.588 56.8279 19.468C57.2613 19.0947 57.7379 18.5913 58.2579 17.958C58.5446 17.6513 58.8446 17.2513 59.1579 16.758C59.3713 16.4313 59.6546 16.268 60.0079 16.268C60.0679 16.268 60.0979 16.2947 60.0979 16.348L60.0179 16.538C59.9246 16.7047 59.7146 17.0713 59.3879 17.638C59.0679 18.198 58.8846 18.518 58.8379 18.598C58.5646 19.078 58.4279 19.3947 58.4279 19.548C58.4279 19.608 58.4479 19.638 58.4879 19.638C58.5546 19.638 58.7679 19.4713 59.1279 19.138C59.4079 18.858 59.7779 18.4547 60.2379 17.928C60.2579 17.908 60.2746 17.898 60.2879 17.898C60.3013 17.898 60.3079 17.9113 60.3079 17.938C60.3079 18.0647 60.2579 18.188 60.1579 18.308C59.6646 18.8547 59.2279 19.3113 58.8479 19.678C58.5879 19.9247 58.2946 20.1713 57.9679 20.418C57.6479 20.6647 57.4146 20.788 57.2679 20.788C57.1679 20.788 57.1179 20.718 57.1179 20.578C57.1179 20.498 57.1779 20.3247 57.2979 20.058C57.4179 19.7913 57.5379 19.5447 57.6579 19.318L57.8379 18.978ZM61.7989 18.578C61.7455 18.578 61.7189 18.558 61.7189 18.518C61.7189 18.498 61.7289 18.4713 61.7489 18.438C62.1422 17.8247 62.3389 17.4047 62.3389 17.178C62.3389 17.118 62.3155 17.088 62.2689 17.088C62.0689 17.088 61.5989 17.5413 60.8589 18.448C60.6389 18.728 60.4322 19.018 60.2389 19.318C60.0522 19.618 59.9222 19.848 59.8489 20.008L59.7289 20.238C59.6489 20.398 59.5255 20.5447 59.3589 20.678C59.1922 20.818 59.0189 20.888 58.8389 20.888C58.7455 20.888 58.6989 20.8647 58.6989 20.818C58.6989 20.778 58.7289 20.6947 58.7889 20.568C58.8422 20.4413 58.9089 20.3013 58.9889 20.148C59.0689 19.9947 59.1489 19.8447 59.2289 19.698C59.3089 19.5513 59.3755 19.428 59.4289 19.328L59.5189 19.178L60.5689 17.348C60.9755 16.5813 61.4022 16.198 61.8489 16.198C61.9089 16.198 61.9389 16.2213 61.9389 16.268C61.9389 16.328 61.7922 16.578 61.4989 17.018C61.2122 17.4513 61.0455 17.728 60.9989 17.848C60.9855 17.888 60.9789 17.9113 60.9789 17.918C60.9789 17.9313 60.9855 17.938 60.9989 17.938C61.0122 17.938 61.0355 17.9213 61.0689 17.888C61.5689 17.3213 62.0989 16.818 62.6589 16.378C62.6922 16.3447 62.7655 16.298 62.8789 16.238C62.9922 16.1713 63.0922 16.138 63.1789 16.138C63.3055 16.138 63.3689 16.248 63.3689 16.468C63.3689 16.708 63.2889 16.9947 63.1289 17.328C62.9689 17.6613 62.7522 17.9547 62.4789 18.208L62.4389 18.248C62.4122 18.268 62.3822 18.2913 62.3489 18.318C62.3222 18.338 62.2855 18.3647 62.2389 18.398C62.1922 18.4313 62.1455 18.4613 62.0989 18.488C62.0522 18.508 62.0022 18.528 61.9489 18.548C61.8955 18.568 61.8455 18.578 61.7989 18.578ZM68.6457 18.248C68.4723 18.5413 68.2623 18.838 68.0157 19.138C67.7757 19.4313 67.5023 19.718 67.1957 19.998C66.889 20.2713 66.5523 20.4947 66.1857 20.668C65.819 20.8413 65.4623 20.928 65.1157 20.928C64.5623 20.928 64.2857 20.5147 64.2857 19.688C64.2857 18.6413 64.589 17.5447 65.1957 16.398C65.809 15.2513 66.589 14.3147 67.5357 13.588C67.5957 13.5413 67.6757 13.488 67.7757 13.428C67.8823 13.3613 68.0757 13.2747 68.3557 13.168C68.6423 13.0547 68.9023 12.998 69.1357 12.998C69.3157 12.998 69.4723 13.0247 69.6057 13.078C69.619 13.0847 69.6357 13.088 69.6557 13.088C69.7023 13.088 69.739 13.0647 69.7657 13.018C69.9057 12.9047 70.129 12.848 70.4357 12.848H70.5157C70.609 12.848 70.6557 12.8947 70.6557 12.988C70.6557 13.1347 70.5457 13.368 70.3257 13.688C70.1123 14.008 69.9123 14.278 69.7257 14.498C69.539 14.718 69.3723 14.908 69.2257 15.068C68.979 15.328 68.8057 15.458 68.7057 15.458C68.659 15.458 68.6357 15.4247 68.6357 15.358C68.6357 15.1247 68.8257 14.668 69.2057 13.988C69.2123 13.9747 69.2457 13.9213 69.3057 13.828C69.3657 13.7347 69.409 13.658 69.4357 13.598C69.4623 13.5313 69.4757 13.4713 69.4757 13.418C69.4757 13.3047 69.3857 13.248 69.2057 13.248C69.059 13.248 68.8957 13.2947 68.7157 13.388C68.5423 13.4813 68.4057 13.5747 68.3057 13.668L68.1457 13.808C67.439 14.4613 66.799 15.3247 66.2257 16.398C65.659 17.4647 65.3757 18.4347 65.3757 19.308C65.3757 19.9413 65.5757 20.258 65.9757 20.258C66.029 20.258 66.089 20.2513 66.1557 20.238C66.229 20.2247 66.349 20.1813 66.5157 20.108C66.689 20.028 66.8557 19.9213 67.0157 19.788C67.1823 19.648 67.3723 19.438 67.5857 19.158C67.8057 18.8713 68.0123 18.538 68.2057 18.158C68.259 18.0513 68.329 17.9013 68.4157 17.708C68.5023 17.508 68.569 17.3613 68.6157 17.268C68.669 17.1747 68.7123 17.128 68.7457 17.128C68.7923 17.128 68.829 17.1713 68.8557 17.258C68.8823 17.338 68.8957 17.408 68.8957 17.468C68.8957 17.7147 68.8123 17.9747 68.6457 18.248ZM71.3004 20.018C70.7471 20.5247 70.3671 20.778 70.1604 20.778C70.0671 20.778 70.0204 20.7247 70.0204 20.618C70.0204 20.4847 70.0771 20.2813 70.1904 20.008C70.3104 19.7347 70.4304 19.4947 70.5504 19.288L70.7304 18.978C70.7571 18.9313 70.7704 18.9013 70.7704 18.888C70.7704 18.8747 70.7638 18.868 70.7504 18.868C70.7238 18.868 70.6738 18.9047 70.6004 18.978C70.4004 19.198 70.1704 19.4347 69.9104 19.688C69.6571 19.9347 69.4504 20.128 69.2904 20.268L69.0604 20.468C68.8004 20.668 68.6004 20.768 68.4604 20.768C68.3138 20.768 68.2404 20.6547 68.2404 20.428C68.2404 20.3147 68.2738 20.1413 68.3404 19.908C68.4004 19.6747 68.4471 19.518 68.4804 19.438C68.6338 19.0647 68.8238 18.7013 69.0504 18.348C69.2838 17.9947 69.5571 17.658 69.8704 17.338C70.1838 17.0113 70.5471 16.748 70.9604 16.548C71.3804 16.348 71.8138 16.248 72.2604 16.248C72.6338 16.248 72.8204 16.3047 72.8204 16.418C72.8204 16.4847 72.7371 16.518 72.5704 16.518C71.9571 16.518 71.3804 16.7813 70.8404 17.308C70.3071 17.828 69.8738 18.428 69.5404 19.108C69.4471 19.2947 69.4004 19.4513 69.4004 19.578C69.4004 19.6513 69.4238 19.688 69.4704 19.688C69.5504 19.688 69.6538 19.6313 69.7804 19.518C69.8604 19.4447 69.9671 19.348 70.1004 19.228C70.2404 19.108 70.4638 18.878 70.7704 18.538C71.0771 18.198 71.3204 17.8813 71.5004 17.588C71.5271 17.5347 71.5671 17.4713 71.6204 17.398C71.6804 17.3247 71.7904 17.228 71.9504 17.108C72.1104 16.9813 72.2704 16.918 72.4304 16.918C72.5171 16.918 72.5604 16.9413 72.5604 16.988C72.5604 17.0013 72.5504 17.0247 72.5304 17.058C72.5038 17.1113 72.4271 17.2447 72.3004 17.458C72.1804 17.6713 72.0671 17.8747 71.9604 18.068C71.8538 18.2547 71.7404 18.4613 71.6204 18.688C71.5004 18.908 71.4038 19.098 71.3304 19.258C71.2638 19.418 71.2304 19.5247 71.2304 19.578C71.2304 19.618 71.2471 19.638 71.2804 19.638C71.3804 19.638 71.6238 19.4447 72.0104 19.058C72.3038 18.7513 72.6471 18.3747 73.0404 17.928C73.0604 17.908 73.0771 17.898 73.0904 17.898C73.1038 17.898 73.1104 17.9113 73.1104 17.938C73.1104 18.0647 73.0604 18.188 72.9604 18.308C72.3071 19.0347 71.7538 19.6047 71.3004 20.018ZM74.6016 18.578C74.5483 18.578 74.5216 18.558 74.5216 18.518C74.5216 18.498 74.5316 18.4713 74.5516 18.438C74.9449 17.8247 75.1416 17.4047 75.1416 17.178C75.1416 17.118 75.1183 17.088 75.0716 17.088C74.8716 17.088 74.4016 17.5413 73.6616 18.448C73.4416 18.728 73.2349 19.018 73.0416 19.318C72.8549 19.618 72.7249 19.848 72.6516 20.008L72.5316 20.238C72.4516 20.398 72.3283 20.5447 72.1616 20.678C71.9949 20.818 71.8216 20.888 71.6416 20.888C71.5483 20.888 71.5016 20.8647 71.5016 20.818C71.5016 20.778 71.5316 20.6947 71.5916 20.568C71.6449 20.4413 71.7116 20.3013 71.7916 20.148C71.8716 19.9947 71.9516 19.8447 72.0316 19.698C72.1116 19.5513 72.1783 19.428 72.2316 19.328L72.3216 19.178L73.3716 17.348C73.7783 16.5813 74.2049 16.198 74.6516 16.198C74.7116 16.198 74.7416 16.2213 74.7416 16.268C74.7416 16.328 74.5949 16.578 74.3016 17.018C74.0149 17.4513 73.8483 17.728 73.8016 17.848C73.7883 17.888 73.7816 17.9113 73.7816 17.918C73.7816 17.9313 73.7883 17.938 73.8016 17.938C73.8149 17.938 73.8383 17.9213 73.8716 17.888C74.3716 17.3213 74.9016 16.818 75.4616 16.378C75.4949 16.3447 75.5683 16.298 75.6816 16.238C75.7949 16.1713 75.8949 16.138 75.9816 16.138C76.1083 16.138 76.1716 16.248 76.1716 16.468C76.1716 16.708 76.0916 16.9947 75.9316 17.328C75.7716 17.6613 75.5549 17.9547 75.2816 18.208L75.2416 18.248C75.2149 18.268 75.1849 18.2913 75.1516 18.318C75.1249 18.338 75.0883 18.3647 75.0416 18.398C74.9949 18.4313 74.9483 18.4613 74.9016 18.488C74.8549 18.508 74.8049 18.528 74.7516 18.548C74.6983 18.568 74.6483 18.578 74.6016 18.578ZM75.3115 20.728C75.2182 20.728 75.1449 20.698 75.0915 20.638C75.0382 20.578 75.0115 20.498 75.0115 20.398C75.0115 20.2113 75.0849 20.028 75.2315 19.848C75.3849 19.6613 75.5515 19.568 75.7315 19.568C75.9315 19.568 76.0315 19.6813 76.0315 19.908C76.0315 20.1013 75.9549 20.2847 75.8015 20.458C75.6549 20.6313 75.4915 20.7213 75.3115 20.728ZM77.04 20.728C76.9467 20.728 76.8734 20.698 76.82 20.638C76.7667 20.578 76.74 20.498 76.74 20.398C76.74 20.2113 76.8134 20.028 76.96 19.848C77.1134 19.6613 77.28 19.568 77.46 19.568C77.66 19.568 77.76 19.6813 77.76 19.908C77.76 20.1013 77.6834 20.2847 77.53 20.458C77.3834 20.6313 77.22 20.7213 77.04 20.728ZM78.7686 20.728C78.6752 20.728 78.6019 20.698 78.5486 20.638C78.4952 20.578 78.4686 20.498 78.4686 20.398C78.4686 20.2113 78.5419 20.028 78.6886 19.848C78.8419 19.6613 79.0086 19.568 79.1886 19.568C79.3886 19.568 79.4886 19.6813 79.4886 19.908C79.4886 20.1013 79.4119 20.2847 79.2586 20.458C79.1119 20.6313 78.9486 20.7213 78.7686 20.728Z" fill="#FF7777"/>
<defs>
<linearGradient id="paint0_linear_2273_2" x1="37.908" y1="-33.852" x2="37.908" y2="43.148" gradientUnits="userSpaceOnUse">
<stop offset="0.360577" stop-color="#FF0000"/>
<stop offset="0.567308" stop-color="#F7B0B0"/>
<stop offset="0.644231" stop-color="#E7E7E7"/>
<stop offset="0.706731" stop-color="#999999"/>
</linearGradient>
</defs>
</svg>
